<?xml version="1.0" encoding="UTF-8" standalone="no"?>
<svg width="46px" height="54px" viewBox="0 0 46 54" version="1.1" xmlns="http://www.w3.org/2000/svg" xmlns:xlink="http://www.w3.org/1999/xlink">
    <!-- Generator: Sketch 39.1 (31720) - http://www.bohemiancoding.com/sketch -->
    <title>Slice 1</title>
    <desc>Created with Sketch.</desc>
    <defs></defs>
    <g id="Page-1" stroke="none" stroke-width="1" fill="none" fill-rule="evenodd">
        <g id="noun_569214_cc" fill="#998160">
            <g id="Group">
                <path d="M31,12.5 L15,12.5 C7.005,12.5 0.5,19.005 0.5,27 L0.5,53 C0.5,53.276 0.724,53.5 1,53.5 L45,53.5 C45.276,53.5 45.5,53.276 45.5,53 L45.5,27 C45.5,19.005 38.995,12.5 31,12.5 L31,12.5 Z M44.5,52.5 L1.5,52.5 L1.5,27 C1.5,19.556 7.556,13.5 15,13.5 L31,13.5 C38.444,13.5 44.5,19.556 44.5,27 L44.5,52.5 L44.5,52.5 Z" id="Shape"></path>
                <path d="M15,9.5 L31,9.5 C31.276,9.5 31.5,9.276 31.5,9 L31.5,1 C31.5,0.724 31.276,0.5 31,0.5 L15,0.5 C14.724,0.5 14.5,0.724 14.5,1 L14.5,9 C14.5,9.276 14.724,9.5 15,9.5 L15,9.5 Z M15.5,8.5 L15.5,5.5 L30.5,5.5 L30.5,8.5 L15.5,8.5 L15.5,8.5 Z M30.5,1.5 L30.5,4.5 L15.5,4.5 L15.5,1.5 L30.5,1.5 L30.5,1.5 Z" id="Shape"></path>
                <path d="M37,24.5 L9,24.5 C8.724,24.5 8.5,24.724 8.5,25 L8.5,45 C8.5,45.276 8.724,45.5 9,45.5 L37,45.5 C37.276,45.5 37.5,45.276 37.5,45 L37.5,25 C37.5,24.724 37.276,24.5 37,24.5 L37,24.5 Z M36.5,44.5 L9.5,44.5 L9.5,25.5 L36.5,25.5 L36.5,44.5 L36.5,44.5 Z" id="Shape"></path>
                <path d="M15,31.5 L31,31.5 C31.276,31.5 31.5,31.276 31.5,31 C31.5,30.724 31.276,30.5 31,30.5 L15,30.5 C14.724,30.5 14.5,30.724 14.5,31 C14.5,31.276 14.724,31.5 15,31.5 L15,31.5 Z" id="Shape"></path>
                <path d="M29,34.5 L17,34.5 C16.724,34.5 16.5,34.724 16.5,35 C16.5,35.276 16.724,35.5 17,35.5 L29,35.5 C29.276,35.5 29.5,35.276 29.5,35 C29.5,34.724 29.276,34.5 29,34.5 L29,34.5 Z" id="Shape"></path>
            </g>
        </g>
    </g>
</svg>