<?xml version="1.0" encoding="UTF-8" standalone="no"?>
<svg width="34px" height="50px" viewBox="0 0 34 50" version="1.1" xmlns="http://www.w3.org/2000/svg" xmlns:xlink="http://www.w3.org/1999/xlink">
    <!-- Generator: Sketch 39.1 (31720) - http://www.bohemiancoding.com/sketch -->
    <title>Slice 1</title>
    <desc>Created with Sketch.</desc>
    <defs></defs>
    <g id="Page-1" stroke="none" stroke-width="1" fill="none" fill-rule="evenodd">
        <g id="noun_569217_cc" fill="#998160">
            <path d="M33,18.5 L29,18.5 C28.724,18.5 28.5,18.724 28.5,19 L28.5,28.5 L17.5,28.5 L17.5,23.5 L25,23.5 C25.259,23.5 25.475,23.303 25.498,23.045 L27.498,1.045 C27.511,0.905 27.464,0.766 27.369,0.662 C27.274,0.559 27.141,0.5 27,0.5 L7,0.5 C6.859,0.5 6.726,0.559 6.631,0.663 C6.536,0.767 6.489,0.906 6.502,1.046 L8.502,23.046 C8.525,23.303 8.741,23.5 9,23.5 L16.5,23.5 L16.5,28.5 L5.5,28.5 L5.5,19 C5.5,18.724 5.276,18.5 5,18.5 L1,18.5 C0.724,18.5 0.5,18.724 0.5,19 L0.5,33 C0.5,33.276 0.724,33.5 1,33.5 L16.5,33.5 L16.5,44.691 L8.776,48.552 C8.568,48.656 8.46,48.889 8.513,49.114 C8.566,49.339 8.768,49.5 9,49.5 L25,49.5 C25.231,49.5 25.434,49.341 25.486,49.115 C25.54,48.889 25.43,48.656 25.223,48.553 L17.5,44.691 L17.5,33.5 L33,33.5 C33.276,33.5 33.5,33.276 33.5,33 L33.5,19 C33.5,18.724 33.276,18.5 33,18.5 L33,18.5 Z M7.547,1.5 L26.452,1.5 L24.543,22.5 L9.457,22.5 L7.547,1.5 L7.547,1.5 Z M11.118,48.5 L17,45.559 L22.882,48.5 L11.118,48.5 L11.118,48.5 Z M32.5,32.5 L1.5,32.5 L1.5,19.5 L4.5,19.5 L4.5,29 C4.5,29.276 4.724,29.5 5,29.5 L29,29.5 C29.276,29.5 29.5,29.276 29.5,29 L29.5,19.5 L32.5,19.5 L32.5,32.5 L32.5,32.5 Z" id="Shape"></path>
        </g>
    </g>
</svg>