<?xml version="1.0" encoding="UTF-8" standalone="no"?>
<svg width="54px" height="46px" viewBox="0 0 54 46" version="1.1" xmlns="http://www.w3.org/2000/svg" xmlns:xlink="http://www.w3.org/1999/xlink">
    <!-- Generator: Sketch 39.1 (31720) - http://www.bohemiancoding.com/sketch -->
    <title>Slice 1</title>
    <desc>Created with Sketch.</desc>
    <defs></defs>
    <g id="Page-1" stroke="none" stroke-width="1" fill="none" fill-rule="evenodd">
        <g id="noun_572273_cc" fill="#998160">
            <g id="Group">
                <path d="M37,6.5 L23.666,6.5 C21.401,2.792 17.342,0.5 13,0.5 C6.107,0.5 0.5,6.107 0.5,13 C0.5,16.477 1.969,19.813 4.537,22.181 L8.508,45.085 C8.55,45.325 8.758,45.5 9.001,45.5 L21.001,45.5 C21.15,45.5 21.292,45.434 21.387,45.318 C21.482,45.203 21.52,45.051 21.492,44.905 L17.573,24.623 C20.103,23.627 22.247,21.826 23.667,19.5 L37,19.5 C37.276,19.5 37.5,19.276 37.5,19 L37.5,7 C37.5,6.724 37.276,6.5 37,6.5 L37,6.5 Z M36.5,18.5 L23.381,18.5 C23.203,18.5 23.038,18.595 22.948,18.75 C21.577,21.116 19.406,22.921 16.832,23.832 C16.599,23.915 16.461,24.155 16.508,24.398 L20.394,44.5 L9.421,44.5 L5.493,21.841 C5.474,21.73 5.418,21.629 5.334,21.554 C2.897,19.369 1.5,16.251 1.5,13 C1.5,6.659 6.659,1.5 13,1.5 C17.082,1.5 20.894,3.704 22.949,7.25 C23.038,7.404 23.203,7.5 23.382,7.5 L36.5,7.5 L36.5,18.5 L36.5,18.5 Z" id="Shape"></path>
                <path d="M13,6.5 C9.416,6.5 6.5,9.416 6.5,13 C6.5,16.584 9.416,19.5 13,19.5 C16.584,19.5 19.5,16.584 19.5,13 C19.5,9.416 16.584,6.5 13,6.5 L13,6.5 Z M13,18.5 C9.967,18.5 7.5,16.033 7.5,13 C7.5,9.967 9.967,7.5 13,7.5 C16.033,7.5 18.5,9.967 18.5,13 C18.5,16.033 16.033,18.5 13,18.5 L13,18.5 Z" id="Shape"></path>
                <path d="M43.044,10.554 C43.138,10.648 43.265,10.7 43.398,10.7 C43.531,10.7 43.658,10.647 43.752,10.554 L45.797,8.508 L47.842,10.554 C48.037,10.749 48.354,10.749 48.549,10.554 L50.599,8.506 L52.648,10.553 C52.843,10.748 53.16,10.748 53.355,10.553 C53.55,10.358 53.55,10.041 53.355,9.846 L50.953,7.446 C50.758,7.251 50.441,7.251 50.246,7.446 L48.196,9.493 L46.151,7.446 C45.963,7.258 45.631,7.258 45.444,7.446 L43.399,9.492 L41.355,7.446 C41.16,7.251 40.843,7.251 40.648,7.446 C40.453,7.641 40.453,7.958 40.648,8.154 L43.044,10.554 L43.044,10.554 Z" id="Shape"></path>
                <path d="M50.951,11.446 C50.756,11.251 50.439,11.251 50.244,11.446 L48.194,13.493 L46.149,11.446 C45.961,11.258 45.629,11.258 45.442,11.446 L43.397,13.492 L41.353,11.446 C41.158,11.251 40.841,11.251 40.646,11.446 C40.451,11.641 40.451,11.958 40.646,12.154 L43.043,14.554 C43.137,14.648 43.264,14.7 43.397,14.7 C43.53,14.7 43.657,14.647 43.751,14.554 L45.796,12.508 L47.841,14.554 C48.036,14.749 48.353,14.749 48.548,14.554 L50.598,12.506 L52.647,14.553 C52.842,14.748 53.159,14.748 53.354,14.553 C53.549,14.358 53.549,14.041 53.354,13.846 L50.951,11.446 L50.951,11.446 Z" id="Shape"></path>
                <path d="M50.951,15.446 C50.756,15.251 50.439,15.251 50.244,15.446 L48.194,17.493 L46.149,15.446 C45.961,15.258 45.629,15.258 45.442,15.446 L43.397,17.492 L41.353,15.446 C41.158,15.251 40.841,15.251 40.646,15.446 C40.451,15.641 40.451,15.958 40.646,16.154 L43.043,18.554 C43.137,18.648 43.264,18.7 43.397,18.7 C43.53,18.7 43.657,18.647 43.751,18.554 L45.796,16.508 L47.841,18.554 C48.036,18.749 48.353,18.749 48.548,18.554 L50.598,16.506 L52.647,18.553 C52.842,18.748 53.159,18.748 53.354,18.553 C53.549,18.358 53.549,18.041 53.354,17.846 L50.951,15.446 L50.951,15.446 Z" id="Shape"></path>
            </g>
        </g>
    </g>
</svg>