<?xml version="1.0" encoding="UTF-8" standalone="no"?>
<svg width="50px" height="50px" viewBox="0 0 50 50" version="1.1" xmlns="http://www.w3.org/2000/svg" xmlns:xlink="http://www.w3.org/1999/xlink">
    <!-- Generator: Sketch 39.1 (31720) - http://www.bohemiancoding.com/sketch -->
    <title>Slice 1</title>
    <desc>Created with Sketch.</desc>
    <defs></defs>
    <g id="Page-1" stroke="none" stroke-width="1" fill="none" fill-rule="evenodd">
        <g id="noun_569223_cc" fill="#998160">
            <g id="Group">
                <path d="M13,30.5 C10.519,30.5 8.5,32.519 8.5,35 C8.5,37.481 10.519,39.5 13,39.5 C15.481,39.5 17.5,37.481 17.5,35 C17.5,32.519 15.481,30.5 13,30.5 L13,30.5 Z M13,38.5 C11.07,38.5 9.5,36.93 9.5,35 C9.5,33.07 11.07,31.5 13,31.5 C14.93,31.5 16.5,33.07 16.5,35 C16.5,36.93 14.93,38.5 13,38.5 L13,38.5 Z" id="Shape"></path>
                <path d="M9,19.5 C11.481,19.5 13.5,17.481 13.5,15 C13.5,12.519 11.481,10.5 9,10.5 C6.519,10.5 4.5,12.519 4.5,15 C4.5,17.481 6.519,19.5 9,19.5 L9,19.5 Z M9,11.5 C10.93,11.5 12.5,13.07 12.5,15 C12.5,16.93 10.93,18.5 9,18.5 C7.07,18.5 5.5,16.93 5.5,15 C5.5,13.07 7.07,11.5 9,11.5 L9,11.5 Z" id="Shape"></path>
                <path d="M35.5,31 C35.5,26.313 31.687,22.5 27,22.5 C22.313,22.5 18.5,26.313 18.5,31 C18.5,35.687 22.313,39.5 27,39.5 C31.687,39.5 35.5,35.687 35.5,31 L35.5,31 Z M27,38.5 C22.864,38.5 19.5,35.136 19.5,31 C19.5,26.864 22.864,23.5 27,23.5 C31.136,23.5 34.5,26.864 34.5,31 C34.5,35.136 31.136,38.5 27,38.5 L27,38.5 Z" id="Shape"></path>
                <path d="M18.5,17 C18.5,18.378 19.622,19.5 21,19.5 C22.378,19.5 23.5,18.378 23.5,17 C23.5,15.622 22.378,14.5 21,14.5 C19.622,14.5 18.5,15.622 18.5,17 L18.5,17 Z M22.5,17 C22.5,17.827 21.827,18.5 21,18.5 C20.173,18.5 19.5,17.827 19.5,17 C19.5,16.173 20.173,15.5 21,15.5 C21.827,15.5 22.5,16.173 22.5,17 L22.5,17 Z" id="Shape"></path>
                <path d="M35,21.5 C39.687,21.5 43.5,17.687 43.5,13 C43.5,8.313 39.687,4.5 35,4.5 C30.313,4.5 26.5,8.313 26.5,13 C26.5,17.687 30.313,21.5 35,21.5 L35,21.5 Z M35,5.5 C39.136,5.5 42.5,8.864 42.5,13 C42.5,17.136 39.136,20.5 35,20.5 C30.864,20.5 27.5,17.136 27.5,13 C27.5,8.864 30.864,5.5 35,5.5 L35,5.5 Z" id="Shape"></path>
                <path d="M39,36.5 C35.416,36.5 32.5,39.416 32.5,43 C32.5,46.584 35.416,49.5 39,49.5 C42.584,49.5 45.5,46.584 45.5,43 C45.5,39.416 42.584,36.5 39,36.5 L39,36.5 Z M39,48.5 C35.968,48.5 33.5,46.032 33.5,43 C33.5,39.968 35.968,37.5 39,37.5 C42.032,37.5 44.5,39.968 44.5,43 C44.5,46.032 42.032,48.5 39,48.5 L39,48.5 Z" id="Shape"></path>
                <path d="M45,24.5 C42.519,24.5 40.5,26.519 40.5,29 C40.5,31.481 42.519,33.5 45,33.5 C47.481,33.5 49.5,31.481 49.5,29 C49.5,26.519 47.481,24.5 45,24.5 L45,24.5 Z M45,32.5 C43.07,32.5 41.5,30.93 41.5,29 C41.5,27.07 43.07,25.5 45,25.5 C46.93,25.5 48.5,27.07 48.5,29 C48.5,30.93 46.93,32.5 45,32.5 L45,32.5 Z" id="Shape"></path>
                <path d="M17,9.5 C19.481,9.5 21.5,7.481 21.5,5 C21.5,2.519 19.481,0.5 17,0.5 C14.519,0.5 12.5,2.519 12.5,5 C12.5,7.481 14.519,9.5 17,9.5 L17,9.5 Z M17,1.5 C18.93,1.5 20.5,3.07 20.5,5 C20.5,6.93 18.93,8.5 17,8.5 C15.07,8.5 13.5,6.93 13.5,5 C13.5,3.07 15.07,1.5 17,1.5 L17,1.5 Z" id="Shape"></path>
                <path d="M7.5,28 C7.5,26.07 5.93,24.5 4,24.5 C2.07,24.5 0.5,26.07 0.5,28 C0.5,29.93 2.07,31.5 4,31.5 C5.93,31.5 7.5,29.93 7.5,28 L7.5,28 Z M1.5,28 C1.5,26.621 2.622,25.5 4,25.5 C5.378,25.5 6.5,26.621 6.5,28 C6.5,29.379 5.378,30.5 4,30.5 C2.622,30.5 1.5,29.379 1.5,28 L1.5,28 Z" id="Shape"></path>
                <path d="M6,38.5 C4.07,38.5 2.5,40.07 2.5,42 C2.5,43.93 4.07,45.5 6,45.5 C7.93,45.5 9.5,43.93 9.5,42 C9.5,40.07 7.93,38.5 6,38.5 L6,38.5 Z M6,44.5 C4.622,44.5 3.5,43.379 3.5,42 C3.5,40.621 4.622,39.5 6,39.5 C7.378,39.5 8.5,40.621 8.5,42 C8.5,43.379 7.378,44.5 6,44.5 L6,44.5 Z" id="Shape"></path>
                <path d="M15,22.5 C13.622,22.5 12.5,23.622 12.5,25 C12.5,26.379 13.622,27.5 15,27.5 C16.378,27.5 17.5,26.379 17.5,25 C17.5,23.622 16.378,22.5 15,22.5 L15,22.5 Z M15,26.5 C14.173,26.5 13.5,25.827 13.5,25 C13.5,24.173 14.173,23.5 15,23.5 C15.827,23.5 16.5,24.173 16.5,25 C16.5,25.827 15.827,26.5 15,26.5 L15,26.5 Z" id="Shape"></path>
            </g>
        </g>
    </g>
</svg>