<?xml version="1.0" encoding="UTF-8" standalone="no"?>
<svg width="26px" height="54px" viewBox="0 0 26 54" version="1.1" xmlns="http://www.w3.org/2000/svg" xmlns:xlink="http://www.w3.org/1999/xlink">
    <!-- Generator: Sketch 39.1 (31720) - http://www.bohemiancoding.com/sketch -->
    <title>Slice 1</title>
    <desc>Created with Sketch.</desc>
    <defs></defs>
    <g id="Page-1" stroke="none" stroke-width="1" fill="none" fill-rule="evenodd">
        <g id="noun_569225_cc" fill="#998160">
            <g id="Group">
                <path d="M25,0.5 L1,0.5 C0.724,0.5 0.5,0.724 0.5,1 L0.5,9 C0.5,9.276 0.724,9.5 1,9.5 L8.5,9.5 L8.5,21 C8.5,21.133 8.553,21.26 8.646,21.354 L10.5,23.208 L10.5,26.794 L8.646,28.648 C8.542,28.752 8.489,28.896 8.501,29.044 L10.501,53.044 C10.523,53.301 10.74,53.5 11,53.5 L15,53.5 C15.26,53.5 15.477,53.301 15.498,53.042 L17.498,29.042 C17.511,28.895 17.458,28.75 17.353,28.646 L15.5,26.793 L15.5,23.207 L17.354,21.353 C17.447,21.26 17.5,21.133 17.5,21 L17.5,9.5 L25,9.5 C25.276,9.5 25.5,9.276 25.5,9 L25.5,1 C25.5,0.724 25.276,0.5 25,0.5 L25,0.5 Z M16.5,20.793 L14.646,22.647 C14.553,22.74 14.5,22.867 14.5,23 L14.5,27 C14.5,27.133 14.553,27.26 14.646,27.354 L16.482,29.19 L14.54,52.5 L11.46,52.5 L9.518,29.189 L11.354,27.353 C11.447,27.26 11.5,27.133 11.5,27 L11.5,23 C11.5,22.867 11.447,22.74 11.354,22.646 L9.5,20.793 L9.5,9.5 L16.5,9.5 L16.5,20.793 L16.5,20.793 Z M24.5,8.5 L1.5,8.5 L1.5,1.5 L24.5,1.5 L24.5,8.5 L24.5,8.5 Z" id="Shape"></path>
                <path d="M5,5.5 L21,5.5 C21.276,5.5 21.5,5.276 21.5,5 C21.5,4.724 21.276,4.5 21,4.5 L5,4.5 C4.724,4.5 4.5,4.724 4.5,5 C4.5,5.276 4.724,5.5 5,5.5 L5,5.5 Z" id="Shape"></path>
            </g>
        </g>
    </g>
</svg>